<?xml version="1.0" encoding="UTF-8"?>
<svg version="1.1" xmlns="http://www.w3.org/2000/svg" width="1254" height="1254">
<path d="M0 0 C413.82 0 827.64 0 1254 0 C1254 413.82 1254 827.64 1254 1254 C840.18 1254 426.36 1254 0 1254 C0 840.18 0 426.36 0 0 Z " fill="#030202" transform="translate(0,0)"/>
<path d="M0 0 C338 0 338 0 368 8 C369.8975 8.495 371.795 8.99 373.75 9.5 C378.40120281 10.76976457 382.89226822 12.34687466 387.40234375 14.046875 C389.65057268 14.87178907 391.89287283 15.57075553 394.1875 16.25 C401.46438159 18.65396981 408.23908811 22.43264385 415 26 C415.62132812 26.32661621 416.24265625 26.65323242 416.8828125 26.98974609 C426.00644775 31.84038009 434.02824494 37.49920915 442 44 C442.5347998 44.42651855 443.06959961 44.85303711 443.62060547 45.29248047 C475.10017649 70.41750907 496.67770585 106.64542258 505 146 C505.27972656 147.23363281 505.55945313 148.46726562 505.84765625 149.73828125 C515.20360957 195.54926778 504.73795484 245.32327104 479.27685547 284.10693359 C476.4375729 288.31645501 473.35861353 292.19686409 470 296 C469.154375 297.0003125 468.30875 298.000625 467.4375 299.03125 C460.10244347 307.50055425 451.78767844 314.14146249 442.71069336 320.67236328 C440.99490744 322.00395224 439.50051038 323.43257691 438 325 C438.5983667 325.31638428 439.1967334 325.63276855 439.81323242 325.95874023 C481.83256357 348.26978239 514.30524263 378.88579609 528.91015625 425.39453125 C534.31779688 443.28432445 536.62627427 461.15719723 536.5625 479.8125 C536.5620166 480.69508484 536.5615332 481.57766968 536.56103516 482.48699951 C536.41453153 521.31482115 524.16270646 560.61171703 501 592 C500.59958496 592.55300781 500.19916992 593.10601563 499.78662109 593.67578125 C481.77353863 618.45737195 458.80838824 636.44327329 432 651 C431.01725098 651.53778076 431.01725098 651.53778076 430.01464844 652.08642578 C422.97562412 655.9006119 416.05968754 658.8821971 408.328125 660.98046875 C405.63377246 661.80585139 403.2122906 662.74943703 400.6328125 663.85546875 C394.20797977 666.46841882 387.53758089 668.02151853 380.80566406 669.60986328 C378.63382192 670.122916 376.46527684 670.64839845 374.296875 671.17578125 C252.98686723 700.42501435 124.78635992 678 0 678 C0 454.26 0 230.52 0 0 Z " fill="#46D34E" transform="translate(370,272)"/>
<path d="M0 0 C2.31 0 4.62 0 7 0 C9.25 2.4375 9.25 2.4375 10.44140625 4.09765625 C13.94992031 8.37997792 18.68649198 11.56920167 23 15 C23.74894531 15.63808594 24.49789062 16.27617187 25.26953125 16.93359375 C47.33386042 35.52018277 75.32970489 48.26049938 101 61 C135.64625801 78.24815678 169.36118263 96.00554197 182.7109375 134.96484375 C191.87626332 163.13454605 187.57671381 192.66966888 175 219 C164.78593614 238.85959057 149.07231923 254.12195538 128.21875 262.40625 C125.73372321 263.07125717 123.56128537 263.10822333 121 263 C121.804375 262.071875 122.60875 261.14375 123.4375 260.1875 C123.98664063 259.53910156 124.53578125 258.89070313 125.1015625 258.22265625 C126.40910304 256.69181146 127.73873072 255.17964922 129.0859375 253.68359375 C144.37137457 236.1187494 150.49209319 216.63727632 149.20996094 193.54296875 C148.19591303 181.26119776 141.17467879 171.74152968 132.3828125 163.56640625 C119.33617219 153.19931671 104.04409687 145.73598057 88.22753906 140.72558594 C85.80846881 139.93761172 83.416791 139.08942215 81.0234375 138.2265625 C72.18064861 135.04063799 63.40127873 132.13120991 54.26171875 129.921875 C50.64898777 128.90079175 47.43734843 127.5041741 44 126 C44.00227832 126.91133351 44.00227832 126.91133351 44.00460267 127.8410778 C44.09423545 163.89929988 44.16280698 199.95750269 44.20426132 236.01581311 C44.20926377 240.35136257 44.2144411 244.68691181 44.21972656 249.02246094 C44.2207758 249.88554225 44.22182505 250.74862357 44.22290608 251.63785887 C44.24028197 265.58831565 44.27180403 279.53870608 44.30861118 293.48912358 C44.34609919 307.81775394 44.36825242 322.1463497 44.37635398 336.47502708 C44.3818255 345.30710464 44.39906775 354.13899461 44.43166587 362.97101438 C44.45291094 369.03843595 44.4591776 375.10576141 44.45400551 381.17321742 C44.45145915 384.66688769 44.45518979 388.16023161 44.4768219 391.65384293 C44.55065957 405.64226081 44.58936613 418.65815301 40 432 C39.730275 432.8097377 39.46055 433.6194754 39.18265152 434.45375061 C29.08012313 462.3799981 6.6516133 483.73767468 -19.58203125 496.5859375 C-27.78005675 500.37780051 -36.25345775 502.83626115 -45 505 C-46.258125 505.33773438 -47.51625 505.67546875 -48.8125 506.0234375 C-71.24206661 511.38489092 -96.83859795 508.75941973 -116.6875 496.75 C-129.25545234 488.29818926 -138.56340998 478.19885964 -144 464 C-144.48146484 462.79150391 -144.48146484 462.79150391 -144.97265625 461.55859375 C-150.80030179 444.2382891 -147.07445808 424.59782588 -139.1875 408.625 C-127.9628793 387.01909262 -110.9216316 371.9349687 -90 360 C-89.29617188 359.59136719 -88.59234375 359.18273437 -87.8671875 358.76171875 C-81.93820341 355.54915206 -75.45424048 353.8485069 -69 352 C-67.84757812 351.65453125 -66.69515625 351.3090625 -65.5078125 350.953125 C-43.87700011 345.0757105 -21.0035756 346.99880813 0 354 C0 237.18 0 120.36 0 0 Z " fill="#030302" transform="translate(568,402)"/>
<path d="M0 0 C75.10145322 -0.04033135 75.10145322 -0.04033135 106.52148438 -0.04882812 C113.71248375 -0.05078581 120.9034831 -0.05280623 128.09448242 -0.05493164 C128.99567706 -0.05519539 129.89687169 -0.05545914 130.82537526 -0.05573088 C145.34813085 -0.06007256 159.87088245 -0.06795216 174.39363568 -0.0771528 C189.31327125 -0.08652559 204.23290474 -0.09206328 219.15254313 -0.09408849 C228.34844806 -0.0954562 237.54434174 -0.0997659 246.7402432 -0.10791647 C253.05808121 -0.1132287 259.37591346 -0.11479417 265.69375353 -0.11350138 C269.3312209 -0.11286496 272.96866868 -0.11379579 276.60613251 -0.11920547 C290.77074673 -0.13927734 304.87295536 -0.13363044 319 1 C319 1.33 319 1.66 319 2 C287.39741669 3.20307334 255.79028932 3.1343764 224.17050926 3.10353777 C216.48305753 3.09624644 208.7956076 3.09487514 201.1081529 3.09374207 C187.40779217 3.09157341 173.70743752 3.08497383 160.00708008 3.07543945 C146.7277835 3.06620792 133.4484886 3.05915548 120.16918945 3.05493164 C119.34553846 3.05466892 118.52188746 3.05440619 117.67327734 3.05413551 C113.53973495 3.05283012 109.40619254 3.0515665 105.27265012 3.05032361 C71.18176235 3.04001934 37.09088193 3.02246203 3 3 C1.52027333 5.95945335 1.85823208 8.6179564 1.84178162 11.92214966 C1.83684364 12.64256372 1.83190566 13.36297779 1.82681805 14.10522258 C1.81139896 16.53124625 1.80307054 18.95724337 1.79467773 21.38330078 C1.78510267 23.11756628 1.77509281 24.85182942 1.76467896 26.58609009 C1.73758351 31.30481442 1.71659911 36.0235488 1.69667697 40.74230814 C1.67484597 45.66976673 1.6474432 50.59719419 1.62062073 55.52462769 C1.57065472 64.86019304 1.52573042 74.19577565 1.48259836 83.53137481 C1.43325934 94.1575999 1.37832887 104.78379375 1.32291877 115.40998864 C1.20903875 137.27329667 1.10221286 159.13663452 1 181 C0.67 181 0.34 181 0 181 C0 121.27 0 61.54 0 0 Z " fill="#61E44D" transform="translate(370,272)"/>
<path d="M0 0 C0.99 0.66 1.98 1.32 3 2 C-3.377232 4.125744 -9.80065699 5.69616883 -16.375 7.0625 C-17.49406738 7.30564941 -17.49406738 7.30564941 -18.63574219 7.55371094 C-37.7567685 11.40919804 -57.13291768 11.28642435 -76.54415512 11.23213124 C-80.48112682 11.22337759 -84.41809331 11.22642519 -88.35507202 11.22793579 C-95.15262697 11.22897722 -101.9501431 11.22277901 -108.74768829 11.21146011 C-118.57541741 11.19510631 -128.40312802 11.18998708 -138.23086926 11.18748413 C-154.18126719 11.18312241 -170.1316445 11.16985493 -186.08203125 11.15087891 C-201.56315 11.13248048 -217.04426313 11.11834345 -232.52539062 11.10986328 C-233.96022778 11.10907511 -233.96022778 11.10907511 -235.42405155 11.10827102 C-240.22350977 11.10566067 -245.02296803 11.10313332 -249.82242632 11.10064721 C-289.54829864 11.07996219 -329.27414795 11.04477852 -369 11 C-369 10.67 -369 10.34 -369 10 C-365.63486769 9.24424971 -362.53255367 8.87593747 -359.08617401 8.87974548 C-357.63286611 8.87768396 -357.63286611 8.87768396 -356.15019846 8.87558079 C-354.56516968 8.88097323 -354.56516968 8.88097323 -352.94812012 8.88647461 C-351.25497059 8.88625132 -351.25497059 8.88625132 -349.52761602 8.88602352 C-345.73649079 8.88671924 -341.94541371 8.89456751 -338.15429688 8.90234375 C-335.43889902 8.90482575 -332.72350117 8.90577845 -330.00810242 8.9067688 C-324.15324801 8.90965599 -318.29840621 8.91609713 -312.44355774 8.92483521 C-303.9555803 8.9374079 -295.46760752 8.94347091 -286.9796223 8.94776857 C-273.1779802 8.95483889 -259.37634393 8.96563871 -245.57470703 8.97949219 C-244.74866154 8.98032 -243.92261604 8.98114781 -243.07153887 8.98200071 C-236.37854336 8.98873674 -229.68554804 8.99565406 -222.99255276 9.00260353 C-217.16544541 9.00865094 -211.338338 9.01463375 -205.51123047 9.02050781 C-204.69104579 9.02133594 -203.8708611 9.02216407 -203.02582234 9.02301729 C-189.29478369 9.03675764 -175.56374494 9.04648918 -161.83270121 9.05341816 C-153.38040888 9.05787411 -144.92813438 9.06586136 -136.47585034 9.07856297 C-130.66543121 9.08706267 -124.85501613 9.09189629 -119.04459119 9.09398818 C-115.7043002 9.09531818 -112.36405023 9.09880364 -109.02376366 9.10574722 C-96.26291327 9.13141479 -83.54195702 9.10595698 -70.80187464 8.30132389 C-64.38640128 7.91611385 -58.23360827 8.25644591 -51.8359375 8.94140625 C-48.79256071 9.27465163 -48.79256071 9.27465163 -46 7 C-43.45629883 6.68115234 -43.45629883 6.68115234 -40.45703125 6.5859375 C-39.38388672 6.54726563 -38.31074219 6.50859375 -37.20507812 6.46875 C-36.08552734 6.4378125 -34.96597656 6.406875 -33.8125 6.375 C-32.68134766 6.33632813 -31.55019531 6.29765625 -30.38476562 6.2578125 C-27.5900075 6.16347467 -24.79525722 6.07788348 -22 6 C-22 5.34 -22 4.68 -22 4 C-18.04 4 -14.08 4 -10 4 C-10 3.34 -10 2.68 -10 2 C-9.36191406 1.93941406 -8.72382812 1.87882813 -8.06640625 1.81640625 C-7.24011719 1.73261719 -6.41382813 1.64882813 -5.5625 1.5625 C-4.73878906 1.48128906 -3.91507813 1.40007813 -3.06640625 1.31640625 C-1.01337975 1.21069185 -1.01337975 1.21069185 0 0 Z " fill="#0DCA5D" transform="translate(747,939)"/>
<path d="M0 0 C0.33 0 0.66 0 1 0 C1 116.82 1 233.64 1 354 C-4.94 352.515 -4.94 352.515 -11 351 C-13.4093315 350.56172666 -15.82521856 350.15513216 -18.25 349.8125 C-19.34828125 349.65394531 -20.4465625 349.49539063 -21.578125 349.33203125 C-22.77695312 349.16767578 -22.77695312 349.16767578 -24 349 C-24 348.67 -24 348.34 -24 348 C-21.83362491 347.94523209 -19.66683298 347.90686519 -17.5 347.875 C-16.2934375 347.85179687 -15.086875 347.82859375 -13.84375 347.8046875 C-9.59941468 348.02035495 -6.10145452 348.92243604 -2 350 C-1.20431865 308.91550239 -0.81391498 267.84171554 -0.70291888 226.75016929 C-0.68144112 218.86120572 -0.65516367 210.97225976 -0.62875474 203.08331142 C-0.58182832 189.03024055 -0.53837722 174.9771614 -0.49731445 160.92407227 C-0.45756692 147.32380539 -0.41605631 133.72354565 -0.37231445 120.12329102 C-0.36959018 119.27607543 -0.36686591 118.42885984 -0.36405908 117.55597105 C-0.35037325 113.30308307 -0.33665424 109.05019519 -0.32291877 104.79730737 C-0.21014066 69.8648867 -0.10308695 34.93245057 0 0 Z " fill="#3FBB3F" transform="translate(567,402)"/>
<path d="M0 0 C0.99 0.66 1.98 1.32 3 2 C-3.377232 4.125744 -9.80065699 5.69616883 -16.375 7.0625 C-17.12104492 7.22459961 -17.86708984 7.38669922 -18.63574219 7.55371094 C-37.39833366 11.33692468 -56.36907947 11.29276555 -75.42926025 11.19561768 C-78.11933425 11.1847439 -80.80935754 11.18515135 -83.49944973 11.18575573 C-86.7691788 11.18541537 -90.0388775 11.1765655 -93.30859375 11.16796875 C-94.49118271 11.16685593 -95.67377167 11.1657431 -96.89219666 11.16459656 C-104.63414676 11.12110612 -112.28949947 10.69468859 -120 10 C-120 9.67 -120 9.34 -120 9 C-119.04971924 9.00523682 -118.09943848 9.01047363 -117.12036133 9.01586914 C-112.68442225 9.0382168 -108.24848242 9.05218558 -103.8125 9.0625 C-103.012677 9.06444366 -102.212854 9.06638733 -101.38879395 9.06838989 C-91.16252625 9.08575001 -80.99641316 8.92275455 -70.78686523 8.28320312 C-64.38645219 7.91727583 -58.2059531 8.25940679 -51.8359375 8.94140625 C-48.79256071 9.27465163 -48.79256071 9.27465163 -46 7 C-43.45629883 6.68115234 -43.45629883 6.68115234 -40.45703125 6.5859375 C-39.38388672 6.54726563 -38.31074219 6.50859375 -37.20507812 6.46875 C-36.08552734 6.4378125 -34.96597656 6.406875 -33.8125 6.375 C-32.11577148 6.31699219 -32.11577148 6.31699219 -30.38476562 6.2578125 C-27.5900075 6.16347467 -24.79525722 6.07788348 -22 6 C-22 5.34 -22 4.68 -22 4 C-18.04 4 -14.08 4 -10 4 C-10 3.34 -10 2.68 -10 2 C-9.04287109 1.90912109 -9.04287109 1.90912109 -8.06640625 1.81640625 C-7.24011719 1.73261719 -6.41382813 1.64882813 -5.5625 1.5625 C-4.73878906 1.48128906 -3.91507813 1.40007813 -3.06640625 1.31640625 C-1.01337975 1.21069185 -1.01337975 1.21069185 0 0 Z " fill="#18C859" transform="translate(747,939)"/>
<path d="M0 0 C0.33 0 0.66 0 1 0 C1 34.65 1 69.3 1 105 C-2.96 104.01 -6.92 103.02 -11 102 C-13.4093315 101.56172666 -15.82521856 101.15513216 -18.25 100.8125 C-19.89742187 100.57466797 -19.89742187 100.57466797 -21.578125 100.33203125 C-22.37734375 100.22246094 -23.1765625 100.11289062 -24 100 C-24 99.67 -24 99.34 -24 99 C-21.83362491 98.94523209 -19.66683298 98.90686519 -17.5 98.875 C-16.2934375 98.85179687 -15.086875 98.82859375 -13.84375 98.8046875 C-9.59941468 99.02035495 -6.10145452 99.92243604 -2 101 C-1.9845388 99.98691772 -1.9845388 99.98691772 -1.96876526 98.95336914 C-1.83627093 90.30219964 -1.70065374 81.65108084 -1.5625 73 C-1.55147877 72.30972843 -1.54045753 71.61945686 -1.52910233 70.90826797 C-1.15047982 47.26850811 -0.66366323 23.63366662 0 0 Z " fill="#2AB241" transform="translate(567,651)"/>
<path d="M0 0 C0.66 0 1.32 0 2 0 C-0.64922869 22.96937642 -0.64922869 22.96937642 -5.7734375 32.6484375 C-6.82232262 34.65935739 -7.71970571 36.64764501 -8.5625 38.75 C-10.0725954 42.16412874 -11.85998856 44.94284079 -14 48 C-14.37382813 48.62132812 -14.74765625 49.24265625 -15.1328125 49.8828125 C-21.19056299 59.71305431 -29.78827266 69.43449718 -39.4140625 75.88671875 C-41.0502684 76.95759091 -41.0502684 76.95759091 -42.37890625 78.44921875 C-44.48837812 80.46719546 -46.75728776 81.71839631 -49.3125 83.125 C-50.69888672 83.90230469 -50.69888672 83.90230469 -52.11328125 84.6953125 C-55.11205231 86.0506434 -57.7454198 86.60579679 -61 87 C-58.31100421 84.90720689 -55.59555427 83.16269932 -52.625 81.5 C-29.05119798 67.4954154 -10.10780932 44.75881155 -3 18 C-1.75747872 12.03787206 -0.84092946 6.03007953 0 0 Z " fill="#1FC654" transform="translate(612,810)"/>
<path d="M0 0 C5.00203991 0.55492584 9.01595064 2.21252275 13.4375 4.5 C14.13488281 4.85747314 14.83226562 5.21494629 15.55078125 5.58325195 C29.29287213 12.71940316 41.24010583 20.90889392 53 31 C53.95003906 31.80695313 54.90007813 32.61390625 55.87890625 33.4453125 C62.02963763 38.81637371 67.88003374 44.62727604 73 51 C73 51.66 73 52.32 73 53 C72.34 53 71.68 53 71 53 C69.44921875 51.42578125 69.44921875 51.42578125 67.6875 49.3125 C65.62133409 46.87768208 63.57386876 44.57386876 61.3125 42.3125 C59 40 59 40 57.0625 37.5 C53.94650151 33.72303213 50.72546663 30.57515554 46 29 C45.26523437 28.26007813 44.53046875 27.52015625 43.7734375 26.7578125 C40.62704445 23.62914561 37.31950195 21.30090791 33.625 18.875 C32.99078125 18.44574219 32.3565625 18.01648438 31.703125 17.57421875 C27.60966571 14.85916922 23.5685224 12.80616002 19 11 C19 10.34 19 9.68 19 9 C17.824375 8.62875 17.824375 8.62875 16.625 8.25 C13.66645725 7.22981285 10.7353186 6.17941897 7.8125 5.0625 C6.97332031 4.74410156 6.13414062 4.42570312 5.26953125 4.09765625 C2.99459544 2.99738609 1.65163338 1.88834957 0 0 Z " fill="#6ADD42" transform="translate(765,290)"/>
<path d="M0 0 C-0.33 0.99 -0.66 1.98 -1 3 C-4.63 3.66 -8.26 4.32 -12 5 C-12 5.66 -12 6.32 -12 7 C-13.07378906 7.26554688 -14.14757812 7.53109375 -15.25390625 7.8046875 C-16.6901201 8.16139421 -18.12631712 8.51816866 -19.5625 8.875 C-20.26697266 9.04902344 -20.97144531 9.22304688 -21.69726562 9.40234375 C-25.00790331 10.22618907 -28.26928928 11.0831103 -31.53125 12.08984375 C-35.33980829 13.08916141 -39.02338668 13.48532085 -42.9375 13.6875 C-43.98647461 13.74828735 -43.98647461 13.74828735 -45.05664062 13.81030273 C-49.85847415 14.04804496 -54.2839635 13.88425684 -59 13 C-58.67 12.34 -58.34 11.68 -58 11 C-56.89527344 10.98582031 -55.79054688 10.97164062 -54.65234375 10.95703125 C-37.37231281 10.51245616 -20.55919649 7.23370188 -4.44921875 0.91796875 C-2 0 -2 0 0 0 Z " fill="#12A548" transform="translate(547,899)"/>
<path d="M0 0 C0.66 0.66 1.32 1.32 2 2 C-8.81976142 8.80597896 -19.65436521 14.62009525 -31.98828125 18.1015625 C-34.74955548 18.92528892 -37.29749302 19.91691785 -39.9375 21.0625 C-46.06029541 23.62294172 -52.5039445 24.76443901 -59 26 C-59 25.01 -59 24.02 -59 23 C-54.25 21.875 -54.25 21.875 -52 23 C-51.67 22.34 -51.34 21.68 -51 21 C-49.34550895 20.61070799 -47.67453799 20.291224 -46 20 C-35.10624582 17.16762391 -24.86666812 12.79655659 -14.73046875 7.96875 C-13.96428223 7.60491211 -13.1980957 7.24107422 -12.40869141 6.86621094 C-10.85831022 6.12861023 -9.30976375 5.38713925 -7.76318359 4.64160156 C-2.22131844 2 -2.22131844 2 0 2 C0 1.34 0 0.68 0 0 Z " fill="#21B950" transform="translate(810,915)"/>
<path d="M0 0 C0.99 0.66 1.98 1.32 3 2 C-15.47975488 8.15991829 -35.52380181 11.26679724 -55 11 C-55 10.67 -55 10.34 -55 10 C-54.071875 9.87625 -53.14375 9.7525 -52.1875 9.625 C-48.86074765 9.18466918 -48.86074765 9.18466918 -46 7 C-43.45629883 6.68115234 -43.45629883 6.68115234 -40.45703125 6.5859375 C-39.38388672 6.54726563 -38.31074219 6.50859375 -37.20507812 6.46875 C-36.08552734 6.4378125 -34.96597656 6.406875 -33.8125 6.375 C-32.11577148 6.31699219 -32.11577148 6.31699219 -30.38476562 6.2578125 C-27.5900075 6.16347467 -24.79525722 6.07788348 -22 6 C-22 5.34 -22 4.68 -22 4 C-18.04 4 -14.08 4 -10 4 C-10 3.34 -10 2.68 -10 2 C-9.04287109 1.90912109 -9.04287109 1.90912109 -8.06640625 1.81640625 C-7.24011719 1.73261719 -6.41382813 1.64882813 -5.5625 1.5625 C-4.73878906 1.48128906 -3.91507813 1.40007813 -3.06640625 1.31640625 C-1.01337975 1.21069185 -1.01337975 1.21069185 0 0 Z " fill="#19A349" transform="translate(747,939)"/>
<path d="M0 0 C0.57621094 0.72574219 1.15242188 1.45148437 1.74609375 2.19921875 C15.2111488 18.93135822 30.12716426 28.17605574 51 33 C52.46179688 33.3403125 52.46179688 33.3403125 53.953125 33.6875 C55.9647664 34.14296598 57.98168315 34.57509119 60 35 C60 35.33 60 35.66 60 36 C49.15035478 36.88568532 37.53420008 33.00127337 28 28 C27.07960938 27.54238281 26.15921875 27.08476563 25.2109375 26.61328125 C14.95755414 21.14216067 5.93269804 13.08838511 0 3 C0 2.01 0 1.02 0 0 Z " fill="#11C459" transform="translate(428,875)"/>
<path d="M0 0 C0.33 0 0.66 0 1 0 C1 21.12 1 42.24 1 64 C-8 62.875 -8 62.875 -11.28125 62.24609375 C-11.97734375 62.11396484 -12.6734375 61.98183594 -13.390625 61.84570312 C-14.08671875 61.71099609 -14.7828125 61.57628906 -15.5 61.4375 C-16.59054687 61.22963867 -16.59054687 61.22963867 -17.703125 61.01757812 C-19.46918037 60.68063335 -21.23465426 60.34064317 -23 60 C-23 59.67 -23 59.34 -23 59 C-20.83362491 58.94523209 -18.66683298 58.90686519 -16.5 58.875 C-15.2934375 58.85179687 -14.086875 58.82859375 -12.84375 58.8046875 C-9 59 -9 59 -1 61 C-0.67 40.87 -0.34 20.74 0 0 Z " fill="#2DD750" transform="translate(566,691)"/>
<path d="M0 0 C0.33 0 0.66 0 1 0 C1.31359877 11.80060551 1.10065532 23.33658407 -0.375 35.0625 C-0.50108643 36.07828125 -0.62717285 37.0940625 -0.75708008 38.140625 C-1.38136439 42.75791436 -2.14044478 46.6992391 -4 51 C-4.33 51 -4.66 51 -5 51 C-5.09785703 46.2050053 -4.76054011 41.73224955 -4 37 C-3.835 35.72125 -3.67 34.4425 -3.5 33.125 C-3 30 -3 30 -2 29 C-1.85401382 27.11008101 -1.77264909 25.21509498 -1.71875 23.3203125 C-1.68136719 22.16402344 -1.64398437 21.00773437 -1.60546875 19.81640625 C-1.57066406 18.59824219 -1.53585937 17.38007813 -1.5 16.125 C-1.43118161 13.73164948 -1.35844661 11.33840743 -1.28125 8.9453125 C-1.25095703 7.87812988 -1.22066406 6.81094727 -1.18945312 5.71142578 C-1 3 -1 3 0 0 Z " fill="#62DF46" transform="translate(877,450)"/>
<path d="M0 0 C0.66 0 1.32 0 2 0 C8.16514987 15.32676923 11.76741579 30.48652104 12 47 C9.69598156 43.54397234 9.62988681 41.7223506 9.25 37.625 C8.49587438 30.81987321 6.89783229 24.38445458 5 17.8125 C4.60796387 16.44955811 4.60796387 16.44955811 4.20800781 15.05908203 C2.87232174 10.39135022 2.87232174 10.39135022 0.91015625 5.97143555 C0 4 0 4 0 0 Z " fill="#67DD41" transform="translate(864,388)"/>
<path d="M0 0 C0.66 0 1.32 0 2 0 C-0.65211348 22.99438819 -0.65211348 22.99438819 -5.78125 32.65625 C-7.13755099 35.16735883 -7.13755099 35.16735883 -8.4375 38.625 C-10.41236176 42.8907014 -13.06907928 46.34820557 -16 50 C-16.33 49.34 -16.66 48.68 -17 48 C-15.6887582 45.52253854 -14.32131722 43.14677019 -12.875 40.75 C-5.31392816 27.68996682 -2.06565364 14.81224804 0 0 Z " fill="#27C752" transform="translate(612,810)"/>
<path d="M0 0 C4.61571507 6.92357261 4.28114125 13.93699549 4.1875 22 C4.18685547 23.05445313 4.18621094 24.10890625 4.18554688 25.1953125 C4.15527291 30.56389562 3.93896337 35.71175829 3 41 C2.67 41 2.34 41 2 41 C1.96241577 39.77651855 1.96241577 39.77651855 1.92407227 38.52832031 C1.82775532 35.44181001 1.72861328 32.35540568 1.62768555 29.26904297 C1.56413115 27.30052279 1.50370404 25.33190243 1.44335938 23.36328125 C1.18550841 15.54841345 0.74148709 7.78424974 0 0 Z " fill="#58E24C" transform="translate(753,544)"/>
<path d="M0 0 C0.99 0.66 1.98 1.32 3 2 C0.57263007 2.74611781 -1.85733112 3.48045016 -4.29296875 4.19921875 C-6.47163612 4.84370188 -8.64329682 5.51184655 -10.8125 6.1875 C-16.42025481 7.58654811 -22.26621181 7.15732955 -28 7 C-28 6.67 -28 6.34 -28 6 C-26.02 6 -24.04 6 -22 6 C-22 5.34 -22 4.68 -22 4 C-18.04 4 -14.08 4 -10 4 C-10 3.34 -10 2.68 -10 2 C-9.04287109 1.90912109 -9.04287109 1.90912109 -8.06640625 1.81640625 C-7.24011719 1.73261719 -6.41382813 1.64882813 -5.5625 1.5625 C-4.73878906 1.48128906 -3.91507813 1.40007813 -3.06640625 1.31640625 C-1.01337975 1.21069185 -1.01337975 1.21069185 0 0 Z " fill="#1FBE52" transform="translate(747,939)"/>
<path d="M0 0 C-4.89785286 2.53337217 -9.22625978 3.29146535 -14.6875 3.625 C-15.40486328 3.67003662 -16.12222656 3.71507324 -16.86132812 3.76147461 C-21.74402993 4.02811625 -26.20472119 3.89911478 -31 3 C-30.67 2.34 -30.34 1.68 -30 1 C-9.46808511 -0.19148936 -9.46808511 -0.19148936 0 0 Z " fill="#13C859" transform="translate(519,909)"/>
<path d="M0 0 C0.57621094 0.72574219 1.15242188 1.45148437 1.74609375 2.19921875 C8.41691501 10.48861016 15.19638359 16.99690409 24 23 C25.33898288 23.9924226 26.67449328 24.98964872 28 26 C18.85318999 25.76546641 11.93144593 17.27962633 5.953125 11.14453125 C0 4.608 0 4.608 0 0 Z " fill="#0EB652" transform="translate(428,875)"/>
<path d="M0 0 C1.13199353 0.9080162 2.25532363 1.82683826 3.375 2.75 C4.00148438 3.26046875 4.62796875 3.7709375 5.2734375 4.296875 C7.08312318 6.08199481 8.00117455 7.67949644 9 10 C9.66 10 10.32 10 11 10 C12.01866229 11.65532623 13.01810813 13.32260138 14 15 C14.66 15.33 15.32 15.66 16 16 C17.12954935 17.94168103 18.18195457 19.9287976 19.1875 21.9375 C19.73792969 23.01902344 20.28835938 24.10054687 20.85546875 25.21484375 C21.23316406 26.13394531 21.61085938 27.05304687 22 28 C21.67 28.66 21.34 29.32 21 30 C20.32195313 28.90042969 19.64390625 27.80085937 18.9453125 26.66796875 C13.79314876 18.44183279 8.60950933 10.93970235 1.80078125 4.00390625 C0 2 0 2 0 0 Z " fill="#60DB52" transform="translate(725,496)"/>
<path d="M0 0 C0.33 0.99 0.66 1.98 1 3 C-6.12925742 9.90455303 -13.94554252 15.73213586 -24 17 C-21.23442957 14.84689608 -18.41997374 13.04327497 -15.375 11.3125 C-9.83065534 8.03704639 -4.92703094 4.13031955 0 0 Z " fill="#1AB74E" transform="translate(575,880)"/>
<path d="M0 0 C4.48067803 4.04472017 7.32529363 8.46984621 10.3125 13.6875 C10.76689453 14.45900391 11.22128906 15.23050781 11.68945312 16.02539062 C15 21.72550517 15 21.72550517 15 24 C10.69869034 22.56623011 9.76374995 19.38384483 7.8125 15.5625 C7.26045898 14.52125977 7.26045898 14.52125977 6.69726562 13.45898438 C4 8.28964228 4 8.28964228 4 6 C3.34 6 2.68 6 2 6 C2 5.01 2 4.02 2 3 C1.34 3 0.68 3 0 3 C0 2.01 0 1.02 0 0 Z " fill="#66D83E" transform="translate(844,351)"/>
<path d="M0 0 C-2.60066476 1.73377651 -4.67689427 2.72402914 -7.5625 3.8125 C-12.88158802 5.88843273 -17.93554886 8.37079558 -23 11 C-22.67 10.01 -22.34 9.02 -22 8 C-20.01276732 7.29618843 -18.01222047 6.6288189 -16 6 C-15.67 5.34 -15.34 4.68 -15 4 C-14.01 4 -13.02 4 -12 4 C-11.67 3.34 -11.34 2.68 -11 2 C-3.79570747 -1.67011129 -3.79570747 -1.67011129 0 0 Z " fill="#28C152" transform="translate(493,756)"/>
<path d="M0 0 C0.66 0.66 1.32 1.32 2 2 C-14.63856028 12.42081019 -14.63856028 12.42081019 -19.2578125 11.59765625 C-19.83273437 11.40042969 -20.40765625 11.20320312 -21 11 C-18.62690978 9.87081967 -16.25168006 8.74657935 -13.875 7.625 C-13.20984375 7.30789063 -12.5446875 6.99078125 -11.859375 6.6640625 C-7.96889305 4.83324746 -4.11895224 3.27033107 0 2 C0 1.34 0 0.68 0 0 Z " fill="#25C654" transform="translate(810,915)"/>
<path d="M0 0 C3.79977732 3.55398753 6.52754351 7.07875963 9.25 11.5625 C9.93578125 12.67753906 10.6215625 13.79257812 11.328125 14.94140625 C12.67897846 17.41271059 13.54405414 19.25761974 14 22 C11.38275905 19.63202009 9.67138271 17.10399646 8 14 C8 13.34 8 12.68 8 12 C7.34 12 6.68 12 6 12 C5.34 10.02 4.68 8.04 4 6 C3.34 6 2.68 6 2 6 C2 5.01 2 4.02 2 3 C1.01 2.67 0.02 2.34 -1 2 C-0.67 1.34 -0.34 0.68 0 0 Z " fill="#4DD845" transform="translate(872,648)"/>
<path d="M0 0 C2.20805524 -0.0544452 4.41650554 -0.09299283 6.625 -0.125 C7.85476563 -0.14820313 9.08453125 -0.17140625 10.3515625 -0.1953125 C13.94316041 -0.0030428 16.66661175 0.69741444 20 2 C20 2.66 20 3.32 20 4 C20.99 4.33 21.98 4.66 23 5 C17.81970092 4.29885571 12.69648064 3.41920353 7.5625 2.4375 C6.83095703 2.29892578 6.09941406 2.16035156 5.34570312 2.01757812 C3.56353682 1.6797819 1.78172998 1.34009012 0 1 C0 0.67 0 0.34 0 0 Z " fill="#239E3F" transform="translate(543,750)"/>
<path d="M0 0 C0.66 0 1.32 0 2 0 C2.70088156 1.74468372 3.38524009 3.49601161 4.0625 5.25 C4.44535156 6.22453125 4.82820312 7.1990625 5.22265625 8.203125 C6.01113787 11.04007395 6.02437812 12.29409552 5 15 C2.82813579 12.82813579 2.3206752 11.50023469 1.375 8.625 C1.11460937 7.85414063 0.85421875 7.08328125 0.5859375 6.2890625 C0 4 0 4 0 0 Z " fill="#5ED23C" transform="translate(864,388)"/>
<path d="M0 0 C4.83137707 0.59159719 9.38398308 1.43055425 14 3 C14.33 3.66 14.66 4.32 15 5 C10.80441263 6.39852912 8.95433149 4.77263136 5 3 C2.22111387 2.30859478 2.22111387 2.30859478 0 2 C0 1.34 0 0.68 0 0 Z " fill="#68D843" transform="translate(731,279)"/>
<path d="M0 0 C-3.69172595 3.53790403 -7.09390595 3.59115883 -12 4 C-7.66457495 0.67617413 -5.52858726 -0.12018668 0 0 Z " fill="#1BA846" transform="translate(792,927)"/>
<path d="M0 0 C7.48291572 6.15034169 7.48291572 6.15034169 10 10 C7 10 7 10 5.17578125 8.3203125 C4.56089844 7.59585938 3.94601562 6.87140625 3.3125 6.125 C2.68988281 5.40570312 2.06726563 4.68640625 1.42578125 3.9453125 C0 2 0 2 0 0 Z " fill="#4CD144" transform="translate(858,632)"/>
<path d="M0 0 C2.76223278 2.76223278 2.57856291 5.20706617 3 9 C0 7 0 7 -0.75 3.9375 C-0.8325 2.968125 -0.915 1.99875 -1 1 C-0.67 0.67 -0.34 0.34 0 0 Z " fill="#3FC43D" transform="translate(896,692)"/>
<path d="M0 0 C2.97 0.495 2.97 0.495 6 1 C2.79619983 3.13586678 1.98060033 3.23132175 -1.6875 3.125 C-2.89986328 3.09792969 -2.89986328 3.09792969 -4.13671875 3.0703125 C-5.05904297 3.03550781 -5.05904297 3.03550781 -6 3 C-6 2.67 -6 2.34 -6 2 C-4.02 2 -2.04 2 0 2 C0 1.34 0 0.68 0 0 Z " fill="#20CD59" transform="translate(725,943)"/>
<path d="M0 0 C0.66 0.99 1.32 1.98 2 3 C-0.97 3.66 -3.94 4.32 -7 5 C-7 4.01 -7 3.02 -7 2 C-2.25 0.875 -2.25 0.875 0 2 C0 1.34 0 0.68 0 0 Z " fill="#23C356" transform="translate(758,936)"/>
<path d="M0 0 C0.66 0.66 1.32 1.32 2 2 C-2.455 4.97 -2.455 4.97 -7 8 C-4.9957983 3.9915966 -3.50944037 2.58590343 0 0 Z " fill="#22BA51" transform="translate(462,770)"/>
<path d="M0 0 C4.8 3.32307692 4.8 3.32307692 5.8125 6.75 C5.874375 7.4925 5.93625 8.235 6 9 C5.67 8.34 5.34 7.68 5 7 C4.01 6.67 3.02 6.34 2 6 C0.8125 2.9375 0.8125 2.9375 0 0 Z " fill="#52DB4E" transform="translate(705,571)"/>
<path d="M0 0 C0.66 0 1.32 0 2 0 C1.25 6.75 1.25 6.75 -1 9 C-1.125 2.25 -1.125 2.25 0 0 Z " fill="#59D240" transform="translate(873,492)"/>
<path d="M0 0 C2.72869407 0.03287583 5.2966618 0.56397771 8 1 C8.33 2.32 8.66 3.64 9 5 C8.01 4.34 7.02 3.68 6 3 C3.9507906 2.54860541 3.9507906 2.54860541 1.8125 2.375 C0.554375 2.25125 -0.70375 2.1275 -2 2 C-1.34 1.34 -0.68 0.68 0 0 Z " fill="#5FD34C" transform="translate(569,400)"/>
</svg>
